<svg width="0" height="0" class="hidden">
  <symbol fill="none" xmlns="http://www.w3.org/2000/svg" viewBox="0 0 22 22" id="ic_chat">
    <path d="M11 6C14.866 6 18 8.68629 18 12C18 15.3137 14.866 18 11 18C9.85548 18 8.77615 17.7622 7.82227 17.3447L5.08691 18.0908C4.69836 18.1967 4.35028 17.8234 4.4834 17.4434L5.20898 15.3711C4.44616 14.4102 4 13.2499 4 12C4 8.68629 7.13401 6 11 6Z" fill="currentColor"></path>
  </symbol>
  <symbol fill="none" xmlns="http://www.w3.org/2000/svg" viewBox="0 0 22 22" id="ic_check">
    <path d="M8 11.5L10.6667 14L14 9" stroke="currentColor" stroke-width="1.5" stroke-linecap="round" stroke-linejoin="round"></path>
  </symbol>
  <symbol fill="none" xmlns="http://www.w3.org/2000/svg" viewBox="0 0 22 22" id="ic_close">
    <path d="M16 6L6 16" stroke="currentColor" stroke-width="1.2" stroke-linecap="round"></path>
    <path d="M6 6L16 16" stroke="currentColor" stroke-width="1.2" stroke-linecap="round"></path>
  </symbol>
  <symbol fill="none" xmlns="http://www.w3.org/2000/svg" viewBox="0 0 22 22" id="ic_error">
    <path fill-rule="evenodd" clip-rule="evenodd" d="M18 11C18 14.866 14.866 18 11 18C7.13401 18 4 14.866 4 11C4 7.13401 7.13401 4 11 4C14.866 4 18 7.13401 18 11ZM11.875 14.5C11.875 14.9832 11.4832 15.375 11 15.375C10.5168 15.375 10.125 14.9832 10.125 14.5C10.125 14.0168 10.5168 13.625 11 13.625C11.4832 13.625 11.875 14.0168 11.875 14.5ZM11 6.625C10.5168 6.625 10.125 7.01675 10.125 7.5V11C10.125 11.4832 10.5168 11.875 11 11.875C11.4832 11.875 11.875 11.4832 11.875 11V7.5C11.875 7.01675 11.4832 6.625 11 6.625Z" fill="currentColor"></path>
  </symbol>
  <symbol fill="none" xmlns="http://www.w3.org/2000/svg" viewBox="0 0 22 22" id="ic_confirm">
    <circle cx="11" cy="11" r="7" fill="currentColor"></circle>
    <path d="M8 11L10.6667 13.5L14 8.5" stroke="white" stroke-width="1.5" stroke-linecap="round" stroke-linejoin="round"></path>
  </symbol>
  <symbol fill="none" xmlns="http://www.w3.org/2000/svg" viewBox="0 0 22 22" id="ic_locate">
    <path fill-rule="evenodd" clip-rule="evenodd" d="M6.05025 5.05025C8.78392 2.31658 13.2161 2.31658 15.9497 5.05025C18.6834 7.78392 18.6834 12.2161 15.9497 14.9497L11.7071 19.1924C11.3166 19.5829 10.6834 19.5829 10.2929 19.1924L6.05025 14.9497C3.31658 12.2161 3.31658 7.78392 6.05025 5.05025ZM11 12C12.1046 12 13 11.1046 13 10C13 8.89543 12.1046 8 11 8C9.89543 8 9 8.89543 9 10C9 11.1046 9.89543 12 11 12Z" fill="currentColor"></path>
  </symbol>
  <symbol fill="none" xmlns="http://www.w3.org/2000/svg" viewBox="0 0 22 22" id="ic_mypage">
    <path d="M11 11.4629C14.866 11.4629 18 14.1797 18 17.5303C18 18.0322 17.5595 18.3965 17.0575 18.3965H4.94246C4.44049 18.3965 4.00004 18.0322 4 17.5303C4 14.1797 7.13401 11.4629 11 11.4629Z" fill="currentColor"></path>
    <circle cx="11" cy="7.38132" r="3.38132" fill="currentColor"></circle>
  </symbol>
  <symbol fill="none" xmlns="http://www.w3.org/2000/svg" viewBox="0 0 22 22" id="ic_next">
    <path d="M7.33333 4.58317L13.75 10.9998L7.33333 17.4165" stroke="currentColor" stroke-width="1.5" stroke-linecap="round" stroke-linejoin="round"></path>
  </symbol>
  <symbol fill="none" xmlns="http://www.w3.org/2000/svg" viewBox="0 0 22 22" id="ic_search">
    <path d="M19.25 19.25L13.75 13.75M15.5833 9.16667C15.5833 12.7105 12.7105 15.5833 9.16667 15.5833C5.62284 15.5833 2.75 12.7105 2.75 9.16667C2.75 5.62284 5.62284 2.75 9.16667 2.75C12.7105 2.75 15.5833 5.62284 15.5833 9.16667Z" stroke="currentColor" stroke-width="1.5" stroke-linecap="round" stroke-linejoin="round"></path>
  </symbol>
  <symbol fill="none" xmlns="http://www.w3.org/2000/svg" viewBox="0 0 22 22" id="ic_trash">
    <path d="M12.4004 3.7002C12.9525 3.70041 13.4004 4.14804 13.4004 4.7002V4.90039H16C16.5523 4.90039 17 5.34811 17 5.90039V6.2998C17 6.85209 16.5523 7.2998 16 7.2998H6C5.44772 7.2998 5 6.85209 5 6.2998V5.90039C5 5.34811 5.44772 4.90039 6 4.90039H8.59961V4.7002C8.59961 4.14804 9.0475 3.70041 9.59961 3.7002H12.4004Z" fill="currentColor"></path>
    <path d="M16 8.5C16.5523 8.5 17 8.94772 17 9.5V17.2998C17 18.4044 16.1046 19.2998 15 19.2998H7C5.89543 19.2998 5 18.4044 5 17.2998V9.5C5 8.94772 5.44772 8.5 6 8.5H16ZM9.2002 10.9004C8.86882 10.9004 8.59961 11.1686 8.59961 11.5V15.0996C8.59961 15.431 8.86882 15.7002 9.2002 15.7002C9.53148 15.7001 9.7998 15.4309 9.7998 15.0996V11.5C9.7998 11.1687 9.53148 10.9005 9.2002 10.9004ZM12.7998 10.9004C12.4685 10.9005 12.2002 11.1687 12.2002 11.5V15.0996C12.2002 15.4309 12.4685 15.7001 12.7998 15.7002C13.1312 15.7002 13.4004 15.431 13.4004 15.0996V11.5C13.4004 11.1686 13.1312 10.9004 12.7998 10.9004Z" fill="currentColor"></path>
  </symbol>
  <symbol fill="none" xmlns="http://www.w3.org/2000/svg" viewBox="0 0 22 22" id="ic_support">
    <path d="M11 4C15.4183 4 19 7.58172 19 12C19 16.4183 15.4183 20 11 20C6.58172 20 3 16.4183 3 12C3 7.58172 6.58172 4 11 4ZM10.8008 7.77441C8.89249 7.55306 7.16578 8.9208 6.94434 10.8291C6.72323 12.7372 8.09089 14.4631 9.99902 14.6846C10.73 14.7694 11.4338 14.6195 12.0371 14.2969L13.7197 16.4199C13.9328 16.689 14.3237 16.7346 14.5928 16.5215C14.861 16.3084 14.9059 15.9182 14.6934 15.6494L13.0107 13.5254C13.4629 13.0121 13.7706 12.3617 13.8555 11.6309C14.0769 9.72255 12.7091 7.99594 10.8008 7.77441ZM10.6582 9.00781C11.8845 9.15039 12.7624 10.261 12.6201 11.4873C12.4777 12.7136 11.3689 13.5923 10.1426 13.4502C8.9161 13.3079 8.03646 12.1981 8.17871 10.9717C8.32114 9.74527 9.43175 8.86549 10.6582 9.00781Z" fill="currentColor"></path>
  </symbol>
  <symbol fill="none" xmlns="http://www.w3.org/2000/svg" viewBox="0 0 22 22" id="ic_back">
    <path d="M13.7502 17.4168L7.3335 11.0002L13.7502 4.5835" stroke="currentColor" stroke-width="1.5" stroke-linecap="round" stroke-linejoin="round"></path>
  </symbol>
  <symbol fill="none" xmlns="http://www.w3.org/2000/svg" viewBox="0 0 22 22" id="ic_register">
    <path d="M4 7H10M4 10H8" stroke="currentColor" stroke-width="1.5" stroke-linecap="round"></path>
    <path d="M16.8291 7.03672C17.8578 7.77617 18.0924 9.20957 17.3529 10.2383L12.3502 17.1981C12.2833 17.2912 12.1863 17.3591 12.0757 17.3893L9.32741 18.1391C9.02083 18.2228 8.7146 18.0026 8.69621 17.6854L8.53112 14.8415C8.52449 14.727 8.55792 14.6134 8.62483 14.5204L13.6276 7.5605C14.367 6.53178 15.8004 6.29728 16.8291 7.03672Z" fill="currentColor" stroke="currentColor"></path>
  </symbol>
  <symbol fill="none" xmlns="http://www.w3.org/2000/svg" viewBox="0 0 22 22" id="ic_team">
    <path fill-rule="evenodd" clip-rule="evenodd" d="M11 20C15.4183 20 19 16.4183 19 12C19 7.58172 15.4183 4 11 4C6.58172 4 3 7.58172 3 12C3 16.4183 6.58172 20 11 20ZM8 12C8 11.4477 7.55228 11 7 11C6.44772 11 6 11.4477 6 12C6 12.5523 6.44772 13 7 13C7.55228 13 8 12.5523 8 12ZM16 12C16 11.4477 15.5523 11 15 11C14.4477 11 14 11.4477 14 12C14 12.5523 14.4477 13 15 13C15.5523 13 16 12.5523 16 12ZM10 12C10 11.4477 10.4477 11 11 11C11.5523 11 12 11.4477 12 12C12 12.5523 11.5523 13 11 13C10.4477 13 10 12.5523 10 12Z" fill="currentColor"></path>
  </symbol>
  <symbol fill="none" xmlns="http://www.w3.org/2000/svg" viewBox="0 0 22 22" id="ic_calendar">
    <path fill-rule="evenodd" clip-rule="evenodd" d="M7 3C6.44772 3 6 3.44772 6 4V5H5C3.89543 5 3 5.89543 3 7V17C3 18.1046 3.89543 19 5 19H17C18.1046 19 19 18.1046 19 17V7C19 5.89543 18.1046 5 17 5H16V4C16 3.44772 15.5523 3 15 3C14.4477 3 14 3.44772 14 4V5H8V4C8 3.44772 7.55228 3 7 3ZM7 8C6.44772 8 6 8.44772 6 9C6 9.55228 6.44772 10 7 10H15C15.5523 10 16 9.55228 16 9C16 8.44772 15.5523 8 15 8H7Z" fill="currentColor"></path>
  </symbol>
  <symbol fill="none" xmlns="http://www.w3.org/2000/svg" viewBox="0 0 12 12" id="ic_close_white">
    <path fill-rule="evenodd" clip-rule="evenodd" d="M2.57564 2.57576C2.80995 2.34145 3.18985 2.34145 3.42417 2.57576L5.9999 5.1515L8.57564 2.57576C8.80995 2.34145 9.18985 2.34145 9.42417 2.57576C9.65848 2.81007 9.65848 3.18997 9.42417 3.42429L6.84843 6.00002L9.42417 8.57576C9.65848 8.81007 9.65848 9.18997 9.42417 9.42429C9.18985 9.6586 8.80995 9.6586 8.57564 9.42429L5.9999 6.84855L3.42417 9.42429C3.18985 9.6586 2.80995 9.6586 2.57564 9.42429C2.34132 9.18997 2.34132 8.81007 2.57564 8.57576L5.15137 6.00002L2.57564 3.42429C2.34132 3.18997 2.34132 2.81007 2.57564 2.57576Z" fill="white"/>
  </symbol>
</svg>