<svg width="0" height="0" class="hidden">
  <symbol fill="none" xmlns="http://www.w3.org/2000/svg" viewBox="0 0 22 22" id="ic_chat">
    <path d="M11 6C14.866 6 18 8.68629 18 12C18 15.3137 14.866 18 11 18C9.85548 18 8.77615 17.7622 7.82227 17.3447L5.08691 18.0908C4.69836 18.1967 4.35028 17.8234 4.4834 17.4434L5.20898 15.3711C4.44616 14.4102 4 13.2499 4 12C4 8.68629 7.13401 6 11 6Z" fill="currentColor"></path>
  </symbol>
  <symbol fill="none" xmlns="http://www.w3.org/2000/svg" viewBox="0 0 22 22" id="ic_check">
    <path d="M8 11.5L10.6667 14L14 9" stroke="currentColor" stroke-width="1.5" stroke-linecap="round" stroke-linejoin="round"></path>
  </symbol>
  <symbol fill="none" xmlns="http://www.w3.org/2000/svg" viewBox="0 0 22 22" id="ic_close">
    <path d="M16 6L6 16" stroke="currentColor" stroke-width="1.2" stroke-linecap="round"></path>
    <path d="M6 6L16 16" stroke="currentColor" stroke-width="1.2" stroke-linecap="round"></path>
  </symbol>
  <symbol fill="none" xmlns="http://www.w3.org/2000/svg" viewBox="0 0 22 22" id="ic_error">
    <path fill-rule="evenodd" clip-rule="evenodd" d="M18 11C18 14.866 14.866 18 11 18C7.13401 18 4 14.866 4 11C4 7.13401 7.13401 4 11 4C14.866 4 18 7.13401 18 11ZM11.875 14.5C11.875 14.9832 11.4832 15.375 11 15.375C10.5168 15.375 10.125 14.9832 10.125 14.5C10.125 14.0168 10.5168 13.625 11 13.625C11.4832 13.625 11.875 14.0168 11.875 14.5ZM11 6.625C10.5168 6.625 10.125 7.01675 10.125 7.5V11C10.125 11.4832 10.5168 11.875 11 11.875C11.4832 11.875 11.875 11.4832 11.875 11V7.5C11.875 7.01675 11.4832 6.625 11 6.625Z" fill="currentColor"></path>
  </symbol>
  <symbol fill="none" xmlns="http://www.w3.org/2000/svg" viewBox="0 0 22 22" id="ic_confirm">
    <circle cx="11" cy="11" r="7" fill="currentColor"></circle>
    <path d="M8 11L10.6667 13.5L14 8.5" stroke="white" stroke-width="1.5" stroke-linecap="round" stroke-linejoin="round"></path>
  </symbol>
  <symbol fill="none" xmlns="http://www.w3.org/2000/svg" viewBox="0 0 22 22" id="ic_locate">
    <path fill-rule="evenodd" clip-rule="evenodd" d="M6.05025 5.05025C8.78392 2.31658 13.2161 2.31658 15.9497 5.05025C18.6834 7.78392 18.6834 12.2161 15.9497 14.9497L11.7071 19.1924C11.3166 19.5829 10.6834 19.5829 10.2929 19.1924L6.05025 14.9497C3.31658 12.2161 3.31658 7.78392 6.05025 5.05025ZM11 12C12.1046 12 13 11.1046 13 10C13 8.89543 12.1046 8 11 8C9.89543 8 9 8.89543 9 10C9 11.1046 9.89543 12 11 12Z" fill="currentColor"/>
  </symbol>

  <symbol fill="none" xmlns="http://www.w3.org/2000/svg" viewBox="0 0 22 22" id="ic_mypage">
    <path d="M11 11.4629C14.866 11.4629 18 14.1797 18 17.5303C18 18.0322 17.5595 18.3965 17.0575 18.3965H4.94246C4.44049 18.3965 4.00004 18.0322 4 17.5303C4 14.1797 7.13401 11.4629 11 11.4629Z" fill="currentColor"></path>
    <circle cx="11" cy="7.38132" r="3.38132" fill="currentColor"></circle>
  </symbol>
  <symbol fill="none" xmlns="http://www.w3.org/2000/svg" viewBox="0 0 22 22" id="ic_next">
    <path d="M7.33333 4.58317L13.75 10.9998L7.33333 17.4165" stroke="currentColor" stroke-width="1.5" stroke-linecap="round" stroke-linejoin="round"></path>
  </symbol>
  <symbol fill="none" xmlns="http://www.w3.org/2000/svg" viewBox="0 0 22 22" id="ic_search">
    <path d="M19.25 19.25L13.75 13.75M15.5833 9.16667C15.5833 12.7105 12.7105 15.5833 9.16667 15.5833C5.62284 15.5833 2.75 12.7105 2.75 9.16667C2.75 5.62284 5.62284 2.75 9.16667 2.75C12.7105 2.75 15.5833 5.62284 15.5833 9.16667Z" stroke="currentColor" stroke-width="1.5" stroke-linecap="round" stroke-linejoin="round"></path>
  </symbol>
  <symbol fill="none" xmlns="http://www.w3.org/2000/svg" viewBox="0 0 22 22" id="ic_trash">
    <path d="M12.4004 3.7002C12.9525 3.70041 13.4004 4.14804 13.4004 4.7002V4.90039H16C16.5523 4.90039 17 5.34811 17 5.90039V6.2998C17 6.85209 16.5523 7.2998 16 7.2998H6C5.44772 7.2998 5 6.85209 5 6.2998V5.90039C5 5.34811 5.44772 4.90039 6 4.90039H8.59961V4.7002C8.59961 4.14804 9.0475 3.70041 9.59961 3.7002H12.4004Z" fill="currentColor"></path>
    <path d="M16 8.5C16.5523 8.5 17 8.94772 17 9.5V17.2998C17 18.4044 16.1046 19.2998 15 19.2998H7C5.89543 19.2998 5 18.4044 5 17.2998V9.5C5 8.94772 5.44772 8.5 6 8.5H16ZM9.2002 10.9004C8.86882 10.9004 8.59961 11.1686 8.59961 11.5V15.0996C8.59961 15.431 8.86882 15.7002 9.2002 15.7002C9.53148 15.7001 9.7998 15.4309 9.7998 15.0996V11.5C9.7998 11.1687 9.53148 10.9005 9.2002 10.9004ZM12.7998 10.9004C12.4685 10.9005 12.2002 11.1687 12.2002 11.5V15.0996C12.2002 15.4309 12.4685 15.7001 12.7998 15.7002C13.1312 15.7002 13.4004 15.431 13.4004 15.0996V11.5C13.4004 11.1686 13.1312 10.9004 12.7998 10.9004Z" fill="currentColor"></path>
  </symbol>
  <symbol fill="none" xmlns="http://www.w3.org/2000/svg" viewBox="0 0 22 22" id="ic_support">
    <path d="M11 4C15.4183 4 19 7.58172 19 12C19 16.4183 15.4183 20 11 20C6.58172 20 3 16.4183 3 12C3 7.58172 6.58172 4 11 4ZM10.8008 7.77441C8.89249 7.55306 7.16578 8.9208 6.94434 10.8291C6.72323 12.7372 8.09089 14.4631 9.99902 14.6846C10.73 14.7694 11.4338 14.6195 12.0371 14.2969L13.7197 16.4199C13.9328 16.689 14.3237 16.7346 14.5928 16.5215C14.861 16.3084 14.9059 15.9182 14.6934 15.6494L13.0107 13.5254C13.4629 13.0121 13.7706 12.3617 13.8555 11.6309C14.0769 9.72255 12.7091 7.99594 10.8008 7.77441ZM10.6582 9.00781C11.8845 9.15039 12.7624 10.261 12.6201 11.4873C12.4777 12.7136 11.3689 13.5923 10.1426 13.4502C8.9161 13.3079 8.03646 12.1981 8.17871 10.9717C8.32114 9.74527 9.43175 8.86549 10.6582 9.00781Z" fill="currentColor"></path>
  </symbol>
  <symbol fill="none" xmlns="http://www.w3.org/2000/svg" viewBox="0 0 22 22" id="ic_back">
    <path d="M13.7502 17.4168L7.3335 11.0002L13.7502 4.5835" stroke="currentColor" stroke-width="1.5" stroke-linecap="round" stroke-linejoin="round"></path>
  </symbol>
  <symbol fill="none" xmlns="http://www.w3.org/2000/svg" viewBox="0 0 22 22" id="ic_register">
    <path d="M4 7H10M4 10H8" stroke="currentColor" stroke-width="1.5" stroke-linecap="round"></path>
    <path d="M16.8291 7.03672C17.8578 7.77617 18.0924 9.20957 17.3529 10.2383L12.3502 17.1981C12.2833 17.2912 12.1863 17.3591 12.0757 17.3893L9.32741 18.1391C9.02083 18.2228 8.7146 18.0026 8.69621 17.6854L8.53112 14.8415C8.52449 14.727 8.55792 14.6134 8.62483 14.5204L13.6276 7.5605C14.367 6.53178 15.8004 6.29728 16.8291 7.03672Z" fill="currentColor" stroke="currentColor"></path>
  </symbol>
  <symbol fill="none" xmlns="http://www.w3.org/2000/svg" viewBox="0 0 22 22" id="ic_team">
    <path fill-rule="evenodd" clip-rule="evenodd" d="M11 20C15.4183 20 19 16.4183 19 12C19 7.58172 15.4183 4 11 4C6.58172 4 3 7.58172 3 12C3 16.4183 6.58172 20 11 20ZM8 12C8 11.4477 7.55228 11 7 11C6.44772 11 6 11.4477 6 12C6 12.5523 6.44772 13 7 13C7.55228 13 8 12.5523 8 12ZM16 12C16 11.4477 15.5523 11 15 11C14.4477 11 14 11.4477 14 12C14 12.5523 14.4477 13 15 13C15.5523 13 16 12.5523 16 12ZM10 12C10 11.4477 10.4477 11 11 11C11.5523 11 12 11.4477 12 12C12 12.5523 11.5523 13 11 13C10.4477 13 10 12.5523 10 12Z" fill="currentColor"></path>
  </symbol>
  <symbol fill="none" xmlns="http://www.w3.org/2000/svg" viewBox="0 0 22 22" id="ic_calendar">
    <path fill-rule="evenodd" clip-rule="evenodd" d="M7 3C6.44772 3 6 3.44772 6 4V5H5C3.89543 5 3 5.89543 3 7V17C3 18.1046 3.89543 19 5 19H17C18.1046 19 19 18.1046 19 17V7C19 5.89543 18.1046 5 17 5H16V4C16 3.44772 15.5523 3 15 3C14.4477 3 14 3.44772 14 4V5H8V4C8 3.44772 7.55228 3 7 3ZM7 8C6.44772 8 6 8.44772 6 9C6 9.55228 6.44772 10 7 10H15C15.5523 10 16 9.55228 16 9C16 8.44772 15.5523 8 15 8H7Z" fill="currentColor"></path>
  </symbol>
  <symbol fill="none" xmlns="http://www.w3.org/2000/svg" viewBox="0 0 26 26" id="ic_dash">
    <path d="M10 13H16" stroke="currentColor" stroke-width="1.5" stroke-linecap="square"/>
  </symbol>
  <symbol fill="none" xmlns="http://www.w3.org/2000/svg" viewBox="0 0 12 12" id="ic_close_white">
    <path fill-rule="evenodd" clip-rule="evenodd" d="M2.57564 2.57576C2.80995 2.34145 3.18985 2.34145 3.42417 2.57576L5.9999 5.1515L8.57564 2.57576C8.80995 2.34145 9.18985 2.34145 9.42417 2.57576C9.65848 2.81007 9.65848 3.18997 9.42417 3.42429L6.84843 6.00002L9.42417 8.57576C9.65848 8.81007 9.65848 9.18997 9.42417 9.42429C9.18985 9.6586 8.80995 9.6586 8.57564 9.42429L5.9999 6.84855L3.42417 9.42429C3.18985 9.6586 2.80995 9.6586 2.57564 9.42429C2.34132 9.18997 2.34132 8.81007 2.57564 8.57576L5.15137 6.00002L2.57564 3.42429C2.34132 3.18997 2.34132 2.81007 2.57564 2.57576Z" fill="white"/>
  </symbol>
  <symbol fill="none" xmlns="http://www.w3.org/2000/svg" viewBox="0 0 22 19" id="ic_camera">
    <path fill-rule="evenodd" clip-rule="evenodd" d="M3.2001 2.9999C1.76416 2.9999 0.600098 4.16396 0.600098 5.5999V15.9999C0.600098 17.4358 1.76416 18.5999 3.2001 18.5999H18.8001C20.236 18.5999 21.4001 17.4358 21.4001 15.9999V5.5999C21.4001 4.16396 20.236 2.9999 18.8001 2.9999H16.7386C16.3938 2.9999 16.0631 2.86294 15.8193 2.61914L14.3616 1.16142C13.874 0.67383 13.2127 0.399902 12.5231 0.399902H9.47705C8.78749 0.399902 8.12617 0.673829 7.63858 1.16142L6.18086 2.61914C5.93706 2.86294 5.6064 2.9999 5.26162 2.9999H3.2001ZM11.0001 14.6999C13.154 14.6999 14.9001 12.9538 14.9001 10.7999C14.9001 8.64599 13.154 6.8999 11.0001 6.8999C8.84619 6.8999 7.1001 8.64599 7.1001 10.7999C7.1001 12.9538 8.84619 14.6999 11.0001 14.6999Z" fill="currentColor"/>
  </symbol>
  <symbol fill="none" xmlns="http://www.w3.org/2000/svg" viewBox="0 0 19 19" id="ic_filter">
    <path d="M4.67651 9.17648H3.17651M4.67651 9.17648C4.67651 10.0049 5.34809 10.6765 6.17651 10.6765C7.00494 10.6765 7.67651 10.0049 7.67651 9.17648M4.67651 9.17648C4.67651 8.34806 5.34809 7.67648 6.17651 7.67648C7.00494 7.67648 7.67651 8.34806 7.67651 9.17648M13.6765 13.6765C13.6765 12.8481 13.0049 12.1765 12.1765 12.1765C11.3481 12.1765 10.6765 12.8481 10.6765 13.6765M13.6765 13.6765C13.6765 14.5049 13.0049 15.1765 12.1765 15.1765C11.3481 15.1765 10.6765 14.5049 10.6765 13.6765M13.6765 13.6765H15.1765M10.6765 13.6765H3.17651M7.67651 9.17648H15.1765M13.6765 4.67648C13.6765 3.84806 13.0049 3.17648 12.1765 3.17648C11.3481 3.17648 10.6765 3.84806 10.6765 4.67648M13.6765 4.67648C13.6765 5.50491 13.0049 6.17648 12.1765 6.17648C11.3481 6.17648 10.6765 5.50491 10.6765 4.67648M13.6765 4.67648H15.1765M10.6765 4.67648H3.17651" stroke="currentColor" stroke-width="1.2" stroke-linecap="round" stroke-linejoin="round"/>
  </symbol>
  <symbol fill="none" xmlns="http://www.w3.org/2000/svg" viewBox="0 0 22 22" id="ic_down">
    <path d="M14.6667 8.525L11 12.1917L7.33337 8.525" stroke="currentColor" stroke-width="1.5" stroke-linecap="round" stroke-linejoin="round"/>
  </symbol>
  <symbol fill="none" xmlns="http://www.w3.org/2000/svg" viewBox="0 0 24 25" id="ic_up">
    <path d="M5 15.5L12 8.5L19 15.5" stroke="currentColor" stroke-width="1.5" stroke-linecap="round" stroke-linejoin="round"/>
  </symbol>
  <symbol fill="none" xmlns="http://www.w3.org/2000/svg" viewBox="0 0 14 14" id="ic_error_small">
    <path fill-rule="evenodd" clip-rule="evenodd" d="M14 7C14 10.866 10.866 14 7 14C3.13401 14 0 10.866 0 7C0 3.13401 3.13401 0 7 0C10.866 0 14 3.13401 14 7ZM7.875 10.5C7.875 10.9832 7.48325 11.375 7 11.375C6.51675 11.375 6.125 10.9832 6.125 10.5C6.125 10.0168 6.51675 9.625 7 9.625C7.48325 9.625 7.875 10.0168 7.875 10.5ZM7 2.625C6.51675 2.625 6.125 3.01675 6.125 3.5V7C6.125 7.48325 6.51675 7.875 7 7.875C7.48325 7.875 7.875 7.48325 7.875 7V3.5C7.875 3.01675 7.48325 2.625 7 2.625Z" fill="currentColor"/>
  </symbol>
  <symbol fill="none" xmlns="http://www.w3.org/2000/svg" viewBox="0 0 22 22" id="ic_dot">
    <path d="M11 4.58366L11 4.59283M11 11.0003L11 11.0095M11 17.417L11 17.4262M11 5.50033C10.4937 5.50033 10.0833 5.08992 10.0833 4.58366C10.0833 4.0774 10.4937 3.66699 11 3.66699C11.5062 3.66699 11.9166 4.0774 11.9166 4.58366C11.9166 5.08992 11.5062 5.50033 11 5.50033ZM11 11.917C10.4937 11.917 10.0833 11.5066 10.0833 11.0003C10.0833 10.4941 10.4937 10.0837 11 10.0837C11.5062 10.0837 11.9166 10.4941 11.9166 11.0003C11.9166 11.5066 11.5062 11.917 11 11.917ZM11 18.3337C10.4937 18.3337 10.0833 17.9233 10.0833 17.417C10.0833 16.9107 10.4937 16.5003 11 16.5003C11.5062 16.5003 11.9166 16.9107 11.9166 17.417C11.9166 17.9233 11.5062 18.3337 11 18.3337Z" stroke="currentColor" stroke-linecap="round" stroke-linejoin="round"/>
  </symbol>
  <symbol fill="none" xmlns="http://www.w3.org/2000/svg" viewBox="0 0 16 14" id="ic_chat_dot">
    <path fill-rule="evenodd" clip-rule="evenodd" d="M16 7C16 10.866 12.4183 14 8 14C6.50836 14 5.11208 13.6428 3.91677 13.0208L0.977916 13.7555C0.57677 13.8558 0.234194 13.4535 0.397076 13.0735L1.3383 10.8773C0.492801 9.7673 0 8.43401 0 7C0 3.13401 3.58172 0 8 0C12.4183 0 16 3.13401 16 7ZM5 7C5 6.44772 4.55228 6 4 6C3.44772 6 3 6.44772 3 7C3 7.55228 3.44772 8 4 8C4.55228 8 5 7.55228 5 7ZM13 7C13 6.44772 12.5523 6 12 6C11.4477 6 11 6.44772 11 7C11 7.55228 11.4477 8 12 8C12.5523 8 13 7.55228 13 7ZM7 7C7 6.44772 7.44772 6 8 6C8.55229 6 9 6.44772 9 7C9 7.55228 8.55229 8 8 8C7.44772 8 7 7.55228 7 7Z" fill="currentColor"/>
  </symbol>
  <symbol fill="none" xmlns="http://www.w3.org/2000/svg" viewBox="0 0 14 13" id="ic_download" >
    <path d="M1 9.18164L1 9.93164C1 11.1743 2.00736 12.1816 3.25 12.1816L10.75 12.1816C11.9926 12.1816 13 11.1743 13 9.93164L13 9.18164M10 6.18164L7 9.18164M7 9.18164L4 6.18164M7 9.18164L7 0.863325" stroke="currentColor" stroke-width="1.5" stroke-linecap="round" stroke-linejoin="round"/>
  </symbol>
  <symbol xmlns="http://www.w3.org/2000/svg" viewBox="0 0 60 60" fill="none" id="ic_star">
    <path d="M27.7578 5.67188C28.6749 3.81396 31.3251 3.81396 32.2422 5.67188L37.6699 16.6719C38.1797 17.7049 39.1657 18.4203 40.3057 18.5859L52.4443 20.3506C54.4947 20.6486 55.3136 23.1679 53.8301 24.6143L45.0459 33.1768C44.2213 33.9808 43.8453 35.1392 44.04 36.2744L46.1133 48.3643C46.4632 50.4063 44.3193 51.9632 42.4854 50.999L31.6289 45.291C30.6093 44.755 29.3907 44.755 28.3711 45.291L17.5146 50.999C15.6807 51.9632 13.5368 50.4063 13.8867 48.3643L15.96 36.2744C16.1547 35.1392 15.7787 33.9808 14.9541 33.1768L6.16992 24.6143C4.68643 23.1679 5.50527 20.6486 7.55566 20.3506L19.6943 18.5859C20.8343 18.4203 21.8203 17.7049 22.3301 16.6719L27.7578 5.67188Z" fill="currentColor" stroke="#E7EAEF"/>
  </symbol>
  <symbol xmlns="http://www.w3.org/2000/svg" viewBox="0 0 60 60" fill="none" id="ic_star_full">
    <path d="M27.7578 5.67188C28.6749 3.81396 31.3251 3.81396 32.2422 5.67188L37.6699 16.6719C38.1797 17.7049 39.1657 18.4203 40.3057 18.5859L52.4443 20.3506C54.4947 20.6486 55.3136 23.1679 53.8301 24.6143L45.0459 33.1768C44.2213 33.9808 43.8453 35.1392 44.04 36.2744L46.1133 48.3643C46.4632 50.4063 44.3193 51.9632 42.4854 50.999L31.6289 45.291C30.6093 44.755 29.3907 44.755 28.3711 45.291L17.5146 50.999C15.6807 51.9632 13.5368 50.4063 13.8867 48.3643L15.96 36.2744C16.1547 35.1392 15.7787 33.9808 14.9541 33.1768L6.16992 24.6143C4.68643 23.1679 5.50527 20.6486 7.55566 20.3506L19.6943 18.5859C20.8343 18.4203 21.8203 17.7049 22.3301 16.6719L27.7578 5.67188Z" fill="currentColor" stroke="currentColor"/>
  </symbol>
  <symbol viewBox="0 0 60 60" fill="none" xmlns="http://www.w3.org/2000/svg" id="ic_star_half">
    <path d="M27.7578 5.67188C28.6749 3.81396 31.3251 3.81396 32.2422 5.67188L37.6699 16.6719C38.1797 17.7049 39.1657 18.4203 40.3057 18.5859L52.4443 20.3506C54.4947 20.6486 55.3136 23.1679 53.8301 24.6143L45.0459 33.1768C44.2213 33.9808 43.8453 35.1392 44.04 36.2744L46.1133 48.3643C46.4632 50.4063 44.3193 51.9632 42.4854 50.999L31.6289 45.291C30.6093 44.755 29.3907 44.755 28.3711 45.291L17.5146 50.999C15.6807 51.9632 13.5368 50.4063 13.8867 48.3643L15.96 36.2744C16.1547 35.1392 15.7787 33.9808 14.9541 33.1768L6.16992 24.6143C4.68643 23.1679 5.50527 20.6486 7.55566 20.3506L19.6943 18.5859C20.8343 18.4203 21.8203 17.7049 22.3301 16.6719L27.7578 5.67188Z" fill="#F8FAFB" stroke="#E7EAEF" stroke-width="1"/>
    <path d="M27.7578 5.67188C28.6749 3.81396 31.3251 3.81396 32.2422 5.67188L37.6699 16.6719C38.1797 17.7049 39.1657 18.4203 40.3057 18.5859L52.4443 20.3506C54.4947 20.6486 55.3136 23.1679 53.8301 24.6143L45.0459 33.1768C44.2213 33.9808 43.8453 35.1392 44.04 36.2744L46.1133 48.3643C46.4632 50.4063 44.3193 51.9632 42.4854 50.999L31.6289 45.291C30.6093 44.755 29.3907 44.755 28.3711 45.291L17.5146 50.999C15.6807 51.9632 13.5368 50.4063 13.8867 48.3643L15.96 36.2744C16.1547 35.1392 15.7787 33.9808 14.9541 33.1768L6.16992 24.6143C4.68643 23.1679 5.50527 20.6486 7.55566 20.3506L19.6943 18.5859C20.8343 18.4203 21.8203 17.7049 22.3301 16.6719L27.7578 5.67188Z" fill="currentColor" stroke="currentColor" style="clip-path: polygon(0 0, 50% 0, 50% 100%, 0 100%)"/>
  </symbol>
  <symbol fill="none" viewBox="0 0 12 12" xmlns="http://www.w3.org/2000/svg" id="ic_star_small">
    <path d="M5.70605 1.21094C5.8261 0.967692 6.1739 0.967694 6.29395 1.21094L7.37891 3.41113C7.50604 3.66859 7.75198 3.84735 8.03613 3.88867L10.4639 4.24121C10.7322 4.2802 10.8394 4.60945 10.6455 4.79883L8.88867 6.51172C8.68304 6.71221 8.58914 7.00111 8.6377 7.28418L9.05273 9.70215C9.09839 9.96939 8.81717 10.1731 8.57715 10.0469L6.40625 8.90527C6.152 8.77161 5.848 8.77161 5.59375 8.90527L3.42285 10.0469C3.18282 10.1731 2.90161 9.96939 2.94727 9.70215L3.3623 7.28418C3.41086 7.00111 3.31696 6.71221 3.11133 6.51172L1.35449 4.79883C1.16058 4.60945 1.26781 4.2802 1.53613 4.24121L3.96387 3.88867C4.24802 3.84735 4.49396 3.66859 4.62109 3.41113L5.70605 1.21094Z" fill="currentColor" stroke="currentColor" stroke-width="0.545455"/>
  </symbol>
  <symbol fill="none" viewBox="0 0 24 24" xmlns="http://www.w3.org/2000/svg" id="ic_heart_fill">
    <path d="M5.17157 6.20101C3.60948 7.80235 3.60948 10.3986 5.17157 12L11.2842 18.2662C11.6767 18.6685 12.3234 18.6685 12.7159 18.2662L18.8284 12C20.3905 10.3986 20.3905 7.80235 18.8284 6.20101C17.2663 4.59966 14.7337 4.59966 13.1716 6.20101L12 7.40206L10.8284 6.20101C9.26633 4.59966 6.73367 4.59966 5.17157 6.20101Z" fill="currentColor" stroke="currentColor" stroke-linecap="round" stroke-linejoin="round"/>
  </symbol>
  <symbol fill="none" viewBox="0 0 24 24" xmlns="http://www.w3.org/2000/svg" id="ic_heart_empty">
    <path d="M5.17157 6.20101C3.60948 7.80235 3.60948 10.3986 5.17157 12L11.2842 18.2662C11.6767 18.6685 12.3234 18.6685 12.7159 18.2662L18.8284 12C20.3905 10.3986 20.3905 7.80235 18.8284 6.20101C17.2663 4.59966 14.7337 4.59966 13.1716 6.20101L12 7.40206L10.8284 6.20101C9.26633 4.59966 6.73367 4.59966 5.17157 6.20101Z" fill="#F8FAFB" stroke="#CCCED5" stroke-linecap="round" stroke-linejoin="round"/>
  </symbol>
  <symbol fill="none" viewBox="0 0 16 17" xmlns="http://www.w3.org/2000/svg" id="ic_time">
    <path d="M8 2.5C11.3137 2.5 14 5.18629 14 8.5C14 11.8137 11.3137 14.5 8 14.5C4.68629 14.5 2 11.8137 2 8.5C2 5.18629 4.68629 2.5 8 2.5ZM8 5.25C7.58579 5.25 7.25 5.58579 7.25 6V8.92871C7.25 9.12309 7.32591 9.31037 7.46094 9.4502L9.46094 11.5205C9.74866 11.8185 10.2225 11.8268 10.5205 11.5391C10.8185 11.2513 10.8268 10.7775 10.5391 10.4795L8.75 8.62598V6C8.75 5.58579 8.41421 5.25 8 5.25Z" fill="currentColor"/>
  </symbol>
  <symbol xmlns="http://www.w3.org/2000/svg" viewBox="0 0 18 19" fill="none" id="ic_phone">
    <path d="M12.4504 15.2277C11.9513 15.2277 11.2502 15.0472 10.2004 14.4607C8.92374 13.7448 7.9363 13.0839 6.66658 11.8175C5.44238 10.594 4.84664 9.80192 4.01286 8.28471C3.07093 6.57164 3.2315 5.67368 3.41099 5.2899C3.62474 4.83121 3.94025 4.55687 4.34806 4.28456C4.5797 4.1328 4.82482 4.0027 5.08033 3.89593C5.1059 3.88493 5.12968 3.87445 5.1509 3.86499C5.27746 3.80797 5.46923 3.72181 5.71212 3.81385C5.87423 3.87471 6.01894 3.99922 6.24548 4.22294C6.71005 4.68113 7.34491 5.70155 7.57911 6.20269C7.73636 6.54044 7.84042 6.7634 7.84067 7.01346C7.84067 7.30621 7.6934 7.53198 7.51468 7.77564C7.48119 7.82141 7.44795 7.86513 7.41573 7.90758C7.22116 8.16326 7.17846 8.23715 7.20658 8.36908C7.2636 8.63422 7.6888 9.42351 8.38758 10.1208C9.08636 10.818 9.85289 11.2164 10.1191 11.2731C10.2566 11.3025 10.332 11.258 10.5959 11.0566C10.6337 11.0277 10.6726 10.9977 10.7133 10.9678C10.9858 10.7651 11.2011 10.6216 11.487 10.6216H11.4885C11.7373 10.6216 11.9502 10.7295 12.3031 10.9075C12.7633 11.1396 13.8144 11.7663 14.2754 12.2314C14.4997 12.4574 14.6247 12.6016 14.6858 12.7635C14.7778 13.0071 14.6912 13.1981 14.6347 13.326C14.6252 13.3472 14.6147 13.3705 14.6037 13.3963C14.4961 13.6514 14.3652 13.896 14.2128 14.127C13.941 14.5336 13.6656 14.8483 13.2059 15.0623C12.9698 15.174 12.7115 15.2306 12.4504 15.2277Z" fill="currentColor"/>
  </symbol>
  <symbol xmlns="http://www.w3.org/2000/svg" viewBox="0 0 18 18" fill="none" id="ic_dropdown">
    <path d="M14.591 6.20312L9.34104 11.4531L4.09104 6.20313" stroke="#565B65" stroke-width="1.5" stroke-linecap="round" stroke-linejoin="round"/>
  </symbol>
  <symbol id="ic_plus" viewBox="0 0 10 10" fill="none" xmlns="http://www.w3.org/2000/svg">
    <path d="M5 0.75V9.25" stroke="currentColor" stroke-width="1.5" stroke-linecap="round"/>
    <path d="M9.25 5L0.75 5" stroke="currentColor" stroke-width="1.5" stroke-linecap="round"/>
  </symbol>
  <symbol id="ic_subtract" width="21" height="22" viewBox="0 0 21 22" fill="none" xmlns="http://www.w3.org/2000/svg">
    <path d="M0 2.00293C6.634e-08 0.485247 1.62431 -0.479018 2.95703 0.24707L19.2764 9.1377C20.6672 9.89547 20.6672 11.8926 19.2764 12.6504L2.95703 21.541C1.62431 22.2671 2.0499e-06 21.3028 0 19.7852V14.6042C0 13.6219 0.713371 12.785 1.68329 12.6294L7.92188 11.6289C8.48262 11.5387 8.48271 10.7317 7.92188 10.6416L1.68329 9.64106C0.71337 9.4855 0 8.64861 0 7.6663V2.00293Z" fill="currentColor"/>
  </symbol>
</svg>
